# AST/ASF file generated using VICON BodyLanguage
# -----------------------------------------------
:version 1.10
:name VICON
:units
  mass 1.0
  length 0.45
  angle deg
:documentation
   .ast/.asf automatically generated from VICON data using
   VICON BodyBuilder and BodyLanguage model FoxedUp or BRILLIANT.MOD
:root
   order TX TY TZ RX RY RZ
   axis XYZ
   position 0 0 0  
   orientation 0 0 0 
:bonedata
  begin
     id 1 
     name lhipjoint
     direction 0.756833 -0.6125 0.228138 
     length 2.53827 
     axis 0 0 0  XYZ
  end
  begin
     id 2 
     name lfemur
     direction 0.34202 -0.939693 0  
     length 6.51821  
     axis 0 0 20  XYZ
    dof rx ry rz
    limits (-160.0 20.0)
           (-70.0 70.0)
           (-60.0 70.0)
  end
  begin
     id 3 
     name ltibia
     direction 0.34202 -0.939693 0   
     length 6.99902   
     axis 0 0 20   XYZ
    dof rx
    limits (-10.0 170.0)
  end
  begin
     id 4 
     name lfoot
     direction 0.0951515 -0.261427 0.960522   
     length 1.92102   
     axis -90 7.62852e-016 20   XYZ
    dof rx rz
    limits (-45.0 90.0)
           (-70.0 20.0)
  end
  begin
     id 5 
     name ltoes
     direction 1.53539e-011 -4.21781e-011 1   
     length 0.964376   
     axis -90 7.62852e-016 20   XYZ
    dof rx
    limits (-90.0 20.0)
  end
  begin
     id 6 
     name rhipjoint
     direction -0.752153 -0.617542 0.230017   
     length 2.51754  
     axis 0 0 0  XYZ 
  end
  begin
     id 7 
     name rfemur
     direction -0.34202 -0.939693 0   
     length 6.82377   
     axis 0 0 -20   XYZ
    dof rx ry rz
    limits (-160.0 20.0)
           (-70.0 70.0)
           (-70.0 60.0)
  end
  begin
     id 8 
     name rtibia
     direction -0.34202 -0.939693 0   
     length 6.98689   
     axis 0 0 -20   XYZ
    dof rx
    limits (-10.0 170.0)
 end
 begin
     id 9 
     name rfoot
     direction -0.0900426 -0.24739 0.964723   
     length 2.03215  
     axis -90 -7.62852e-016 -20   XYZ
    dof rx rz
    limits (-45.0 90.0)
           (-20.0 70.0)
  end
  begin
     id 10 
     name rtoes
     direction -1.53466e-011 -4.22206e-011 1   
     length 1.0197   
     axis -90 -7.62852e-016 -20   XYZ
    dof rx
    limits (-90.0 20.0)
  end
  begin
     id 11 
     name lowerback
     direction 0.0184183 0.995705 -0.0907278   
     length 2.019   
     axis 0 0 0   XYZ
    dof rx ry rz
    limits (-20.0 45.0)
           (-30.0 30.0)
           (-30.0 30.0)
  end
  begin
     id 12 
     name upperback
     direction 0.00281055 0.998777 0.0493607   
     length 1.99623   
     axis 0 0 0   XYZ
    dof rx ry rz
    limits (-20.0 45.0)
           (-30.0 30.0)
           (-30.0 30.0)
  end
  begin
     id 13 
     name thorax
     direction -0.00665507 0.995706 0.092331   
     length 2.02811   
     axis 0 0 0   XYZ
    dof rx ry rz
    limits (-20.0 45.0)
           (-30.0 30.0)
           (-30.0 30.0)
  end
  begin
     id 14 
     name lowerneck
     direction -0.0960965 0.994358 0.0449225   
     length 1.71265   
     axis 0 0 0   XYZ
    dof rx ry rz
    limits (-20.0 45.0)
           (-30.0 30.0)
           (-30.0 30.0)
  end
  begin
     id 15 
     name upperneck
     direction 0.13642 0.985357 -0.102278   
     length 1.73016   
     axis 0 0 0   XYZ
    dof rx ry rz
    limits (-20.0 45.0)
           (-30.0 30.0)
           (-30.0 30.0)
  end
  begin
     id 16
     name head
     direction 0.0556079 0.997632 -0.040479  
     length 1.74275  
     axis 0 0 0   XYZ
    dof rx ry rz
    limits (-20.0 45.0)
           (-30.0 30.0)
           (-30.0 30.0)
  end
  begin
     id 17 
     name lclavicle
     direction 0.90877 0.417247 -0.00652364  
     length 3.25514  
     axis 0 0 0   XYZ
    dof ry rz
    limits (-20.0 10.0)
           (0.0 20.0)
  end
  begin
     id 18 
     name lhumerus
     direction 1 -4.48949e-011 8.31417e-028   
     length 4.84834   
     axis 180 -30 -90   XYZ
    dof rx ry rz
    limits (-60.0 90.0)
           (-90.0 90.0)
           (-90.0 90.0)
  end
  begin
     id 19
     name lradius
     direction 1 -4.48984e-011 3.45616e-027   
     length 2.99713   
     axis 180 -30 -90   XYZ
    dof rx
    limits (-10.0 170.0)
  end
  begin
     id 20
     name lwrist
     direction 1 -4.4891e-011 4.0479e-027   
     length 1.49857   
     axis -1.61768e-015 90 90   XYZ
    dof ry
    limits (-180.0 0.0)
 end
  begin
     id 21 
     name lhand
     direction 1 -4.49025e-011 8.0958e-027   
     length 0.693987   
     axis -5.16581e-015 90 90   XYZ
    dof rx rz
    limits (-90.0 90.0)
           (-45.0 45.0)
  end
  begin
     id 22 
     name lfingers
     direction 1 -4.4888e-011 1.61916e-026   
     length 0.55951   
     axis -1.03316e-014 90 90   XYZ
    dof rx
    limits (0.0 90.0)
  end
  begin
     id 23
     name lthumb
     direction 0.707107 -6.3493e-011 0.707107   
     length 0.803348   
     axis -90 45 2.85299e-015   XYZ
    dof rx rz
    limits (-45.0 45.0)
           (-45.0 45.0)
  end
  begin
     id 24 
     name rclavicle
     direction -0.906655 0.41906 0.0486307   
     length 3.3311  
     axis 0 0 0   XYZ 
    dof ry rz
    limits (-10.0 20.0)
           (-20.0 0.0)
  end
  begin
     id 25 
     name rhumerus
     direction -1 -4.48959e-011 6.37764e-018  
     length 4.93457   
     axis 180 30 90   XYZ
    dof rx ry rz
    limits (-90.0 60.0)
           (-90.0 90.0)
           (-90.0 90.0)
  end
  begin
     id 26 
     name rradius
     direction -1 -4.48957e-011 2.20847e-027   
     length 3.3443   
     axis 180 30 90   XYZ
    dof rx
    limits (-10.0 170.0)
  end
  begin
     id 27 
     name rwrist
     direction -1 -4.49008e-011 4.0479e-027   
     length 1.67215   
     axis -1.61768e-015 -90 -90   XYZ
    dof ry
    limits (-180.0 0.0)
  end
  begin
     id 28
     name rhand
     direction -1 -4.49013e-011 8.0958e-027   
     length 0.677363   
     axis -5.16581e-015 -90 -90   XYZ
    dof rx rz
    limits (-90.0 90.0)
           (-45.0 45.0)
  end
  begin
     id 29
     name rfingers
     direction -1 -4.48832e-011 1.61916e-026   
     length 0.546107   
     axis -1.03316e-014 -90 -90   XYZ
    dof rx
    limits (0.0 90.0)
  end
  begin
     id 30
     name rthumb
     direction -0.707107 -6.34895e-011 0.707107   
     length 0.784104   
     axis -90 -45 -2.85299e-015   XYZ
    dof rx rz
    limits (-45.0 45.0)
           (-45.0 45.0)
  end
:hierarchy
  begin
    root lhipjoint rhipjoint lowerback
    lhipjoint lfemur
    lfemur ltibia
    ltibia lfoot
    lfoot ltoes
    rhipjoint rfemur
    rfemur rtibia
    rtibia rfoot
    rfoot rtoes
    lowerback upperback
    upperback thorax
    thorax lowerneck lclavicle rclavicle
    lowerneck upperneck
    upperneck head
    lclavicle lhumerus
    lhumerus lradius
    lradius lwrist
    lwrist lhand lthumb
    lhand lfingers
    rclavicle rhumerus
    rhumerus rradius
    rradius rwrist
    rwrist rhand rthumb
    rhand rfingers
  end

#!OML:ASF H:\Terrain\Patient Classification 1\junglegym\FridayTest\junglegym.ASF
:FULLY-SPECIFIED
:DEGREES
421
root -20.5636 19.8733 0.102428 255.075 -98.6156 -308.298
lowerback 6.70772 -0.0767372 6.25515
upperback -2.06889 0.533178 1.87581
thorax -5.9036 0.0558786 -1.61047
lowerneck 11.6935 1.755 -16.4211
upperneck 31.5739 -2.78669 8.52261
head 8.34206 -3.70994 5.60251
rclavicle -5.60573e-014 5.36719e-014
rhumerus 91.422 -32.4129 -51.9155
rradius 41.0972
rwrist -13.3203
rhand 13.995 12.508
rfingers 7.12502
rthumb 38.9048 -13.0392
lclavicle -5.60573e-014 5.36719e-014
lhumerus 105.606 19.156 57.8178
lradius 33.2871
lwrist -19.5605
lhand 14.8382 26.5533
lfingers 7.12502
lthumb 39.6993 51.8694
rfemur -21.4406 9.1624 31.7372
rtibia 37.353
rfoot -1.80687 -7.1592
rtoes 26.7524
lfemur -24.0871 -5.87389 -15.5233
ltibia 40.575
lfoot 3.44008 5.95994
ltoes -23.177
422
root -20.5884 19.82 0.0922969 254.855 -99.0487 -308.182
lowerback 7.04751 -0.146163 6.63005
upperback -2.12644 0.511363 2.03083
thorax -6.16195 0.0238765 -1.65484
lowerneck 11.7456 1.71541 -16.6311
upperneck 31.6161 -2.87475 8.49484
head 8.36886 -3.78763 5.6264
rclavicle 1.43125e-014 2.3059e-014
rhumerus 91.0832 -32.6324 -51.2689
rradius 41.0288
rwrist -13.8131
rhand 13.3455 12.3094
rfingers 7.12502
rthumb 38.2921 -13.4098
lclavicle 1.43125e-014 2.3059e-014
lhumerus 105.848 19.2588 57.8484
lradius 32.6006
lwrist -19.9773
lhand 14.7123 25.9743
lfingers 7.12502
lthumb 39.5807 51.3255
rfemur -20.9232 8.85829 32.2384
rtibia 37.3284
rfoot -1.67942 -6.8036
rtoes 19.7014
lfemur -23.6879 -5.66982 -15.2584
ltibia 40.8048
lfoot 3.13195 6.00409
ltoes -23.8489
423
root -20.603 19.7705 0.0919956 255.499 -99.5389 -308.7
lowerback 6.99089 -0.166402 7.36794
upperback -2.16498 0.548297 2.06612
thorax -6.16704 0.0117244 -2.03275
lowerneck 11.9063 1.68252 -16.7055
upperneck 31.5264 -2.96881 8.52931
head 8.32578 -3.8415 5.64734
rclavicle -7.95139e-015 -2.14687e-014
rhumerus 90.4132 -33.0335 -50.7137
rradius 41.1792
rwrist -14.2583
rhand 13.0364 12.4485
rfingers 7.12502
rthumb 38.0002 -13.3506
lclavicle -7.95139e-015 -2.14687e-014
lhumerus 106.478 18.8048 58.185
lradius 31.6532
lwrist -20.9088
lhand 14.2573 25.3702
lfingers 7.12502
lthumb 39.1521 50.8465
rfemur -20.6538 8.78225 32.6278
rtibia 37.2152
rfoot -2.36487 -6.24947
rtoes 24.4637
lfemur -23.528 -5.52703 -14.8774
ltibia 41.0972
lfoot 2.42226 6.38212
ltoes -25.3259
424
root -20.6013 19.728 0.0851971 255.028 -98.4348 -307.672
lowerback 6.53191 -0.028094 6.39103
upperback -2.37327 0.601825 1.67642
thorax -6.11815 0.0695964 -1.90115
lowerneck 12.1496 1.64806 -16.6974
upperneck 31.504 -3.08399 8.52845
head 8.29581 -3.91045 5.64188
rclavicle 3.97569e-015 4.37326e-014
rhumerus 90.1526 -32.9258 -50.8617
rradius 40.7351
rwrist -13.677
rhand 12.9549 13.8992
rfingers 7.12502
rthumb 37.9233 -11.9209
lclavicle 3.97569e-015 4.37326e-014
lhumerus 106.985 17.6243 59.1067
lradius 30.8144
lwrist -22.8376
lhand 13.654 24.7192
lfingers 7.12502
lthumb 38.5832 50.3574
rfemur -20.9879 9.89678 31.185
rtibia 37.3509
rfoot -2.39992 -7.27303
rtoes 27.4614
lfemur -23.5387 -5.61774 -16.1829
ltibia 41.0872
lfoot 1.67155 7.17275
ltoes -24.823
425
root -20.5863 19.6766 0.0704531 253.849 -97.6539 -306.331
lowerback 6.62581 0.0193918 5.41169
upperback -2.54852 0.588735 1.52693
thorax -6.36014 0.0917877 -1.50931
lowerneck 12.3952 1.6549 -16.7724
upperneck 31.5592 -3.13486 8.43269
head 8.28942 -3.97214 5.61933
rclavicle 1.11319e-014 -4.21423e-014
rhumerus 91.7469 -32.5353 -50.8644
rradius 38.6175
rwrist -13.1377
rhand 13.2657 15.6156
rfingers 7.12502
rthumb 38.2168 -10.1243
lclavicle 1.11319e-014 -4.21423e-014
lhumerus 106.004 19.5656 57.1095
lradius 31.1338
lwrist -20.5873
lhand 13.9807 24.7019
lfingers 7.12502
lthumb 38.8914 50.253
rfemur -20.9378 10.6075 30.294
rtibia 37.6884
rfoot -1.47297 -8.36455
rtoes 16.8459
lfemur -23.1103 -5.57859 -17.1703
ltibia 40.8841
lfoot 1.59452 7.21528
ltoes -21.7166
426
root -20.5677 19.613 0.0540863 255.562 -98.4026 -308.388
lowerback 7.16811 -0.0278924 5.9823
upperback -2.51512 0.631878 1.83956
thorax -6.63546 0.0872297 -1.50765
lowerneck 12.764 1.67128 -16.8194
upperneck 31.3712 -3.16022 8.30015
head 8.17125 -4.00438 5.5755
rclavicle 2.94201e-014 -3.22031e-014
rhumerus 89.9794 -32.5913 -50.1399
rradius 39.8312
rwrist -13.4413
rhand 13.0759 16.2514
rfingers 7.12502
rthumb 38.0376 -9.53761
lclavicle 2.94201e-014 -3.22031e-014
lhumerus 108.495 16.9007 60.5372
lradius 27.243
lwrist -25.2236
lhand 12.444 22.5595
lfingers 7.12502
lthumb 37.4405 48.5088
rfemur -20.213 10.1431 31.2517
rtibia 37.7726
rfoot -1.21104 -8.06467
rtoes 13.9165
lfemur -22.4374 -5.15339 -16.4406
ltibia 40.9922
lfoot 1.83434 6.84413
ltoes -19.8396
